# xmcd
#
# Track frame offsets:
#	150
#	9945
#	29951
#	36456
#	44969
#	48557
#	54312
#	72012
#	93227
#	110896
#	126388
#	133126
#	138620
#	145154
#	149230
#	150914
#	153789
#	176824
#	179072
#	197675
#	208292
#	226188
#	232005
#	245397
#	263334
#	275158
#	281704
#	322769
#
# Disc length: 4493 seconds
#
# Revision: 0
# Processed by: cddbd v1.5.2PL0 Copyright (c) Steve Scherf et al.
# Submitted via: EasyCDDAExtractor 8.1.2.3
#
DISCID=b9118b1c
DTITLE=Demon One - Mon rap
DYEAR=2007
DGENRE=Rap
TTITLE0=Demon One (Intro)
TTITLE1=Mon Rap
TTITLE2=Haute Voltige
TTITLE3=Ca Fou Le Sum
TTITLE4=Du 94 Au 20
TTITLE5=Le Feu Dans Le Guetto
TTITLE6=La Niak
TTITLE7=Monsieur Le Maire
TTITLE8=Votez Pour Moi
TTITLE9=La Cerise Sur Le Guetto
TTITLE10=L'amour
TTITLE11=Insensible
TTITLE12=Je Ne Dors Plus
TTITLE13=A Vive Allure
TTITLE14=Ruse
TTITLE15=Interlude
TTITLE16=Le Beton Qui Parle (Feat. Assoce de malfrats and Selim du 94)
TTITLE17=Guerrier De L' Espace (Interlude)
TTITLE18=Demonstrations
TTITLE19=Au Fond De La Classe
TTITLE20=Rap Local
TTITLE21=Minimal
TTITLE22=J'suis Pas Des Votres
TTITLE23=La Gagne (Feat. Tonton David)
TTITLE24=Du 91 Au 94 (Feat. Grodash)
TTITLE25=La Releve (Bene)
TTITLE26=Radio Mafia K1 Fry
TTITLE27=La Resistance (Feat. Dry)
EXTD=
EXTT0=
EXTT1=
EXTT2=
EXTT3=
EXTT4=
EXTT5=
EXTT6=
EXTT7=
EXTT8=
EXTT9=
EXTT10=
EXTT11=
EXTT12=
EXTT13=
EXTT14=
EXTT15=
EXTT16=
EXTT17=
EXTT18=
EXTT19=
EXTT20=
EXTT21=
EXTT22=
EXTT23=
EXTT24=
EXTT25=
EXTT26=
EXTT27=
PLAYORDER=
